<svg xmlns="http://www.w3.org/2000/svg" viewBox="0 6.75 108.25 37.599998474121094" data-asc="0.883"><g fill="#0f4c75"><g fill="#0f4c75" transform="translate(0, 0)"><path d="M0 44.20L6.55 8.65L22.35 7.30Q22.00 8.40 21.75 9.55Q21.50 10.50 21.28 11.52Q21.05 12.55 20.90 13.35Q20.25 13.40 19.05 13.42Q17.85 13.45 16.60 13.47Q15.35 13.50 14.45 13.50Q13.55 13.50 13.50 13.50L11.75 22.45L14.65 22.30Q15.20 22.25 15.78 22.25Q16.35 22.25 16.90 22.25Q17.45 22.25 17.90 22.25Q18.35 22.25 18.60 22.20Q18.50 22.90 18.43 23.57Q18.35 24.25 18.25 24.95L17.80 27.70Q17.55 27.75 17.15 27.75Q16.75 27.75 16.20 27.75Q15.65 27.80 15.05 27.80Q14.45 27.80 13.90 27.85Q13.25 27.90 12.55 27.90Q11.85 27.90 11.05 27.95L9.35 37.15L16.65 36L16.15 41.70L0 44.20ZM25.20 44.25Q23.20 44.25 21.20 43.17Q19.20 42.10 17.35 39.75L21.05 32.50Q21.60 33.45 22.68 34.30Q23.75 35.15 24.95 35.65Q26.15 36.15 27.00 36.15Q28.30 36.15 29.48 35.35Q30.65 34.55 30.65 33.20Q30.65 31.45 29.05 30Q27.45 28.55 25.45 27.15Q23.50 25.75 21.88 23.97Q20.25 22.20 20.25 19.90Q20.25 17.30 21.75 15.07Q23.25 12.85 25.65 11.17Q28.05 9.50 30.78 8.57Q33.50 7.65 35.95 7.65Q37.70 7.65 39.20 8.22Q40.70 8.80 41.60 10.10Q42.50 11.40 42.50 13.60Q42.50 13.95 42.48 14.30Q42.45 14.65 42.40 15.00Q42.35 15.35 42.28 15.72Q42.20 16.10 42.15 16.50L34.90 18.60Q35 18.20 35.08 17.80Q35.15 17.40 35.15 17.00Q35.15 15.50 34.63 14.82Q34.10 14.15 33.25 14.15Q32.80 14.15 31.95 14.62Q31.10 15.10 30.43 15.92Q29.75 16.75 29.75 17.75Q29.75 19.40 31.13 20.47Q32.50 21.55 34.30 22.65Q35.15 23.15 36.20 24.22Q37.25 25.30 38.03 27.12Q38.80 28.95 38.80 31.80Q38.80 35.50 36.98 38.30Q35.15 41.10 32.05 42.67Q28.95 44.25 25.20 44.25ZM38.55 44.25Q40.00 37.25 41.25 30.60Q41.95 26.55 42.68 22.40Q43.40 18.25 44.00 14.45Q44.60 10.65 44.90 7.65Q46.25 7.70 47.13 7.77Q48.00 7.85 48.78 7.90Q49.55 7.95 50.53 7.97Q51.50 8 53.00 8Q52.15 11.55 51.33 15.10Q50.50 18.65 49.80 22.25L54.75 21.70Q55.10 19.95 55.43 18.22Q55.75 16.50 56.00 14.80Q56.25 13.15 56.63 11.42Q57.00 9.70 57.45 7.95Q59.25 7.65 61.10 7.47Q62.95 7.30 64.20 7.22Q65.45 7.15 65.45 7.15Q64.80 9.15 64.15 11.85Q63.50 14.55 62.90 17.55Q62.30 20.55 61.75 23.52Q61.20 26.50 60.75 29.05Q60.20 32.25 59.70 35.47Q59.20 38.70 58.70 42.05L50.90 42.95Q51.25 41.45 51.53 39.98Q51.80 38.50 52.05 37.10Q52.55 34.70 53.08 32.10Q53.60 29.50 53.90 27.65L49.05 28.10Q48.85 29.05 48.68 30.15Q48.50 31.25 48.25 32.50Q48.00 33.75 47.78 34.92Q47.55 36.10 47.35 37.25Q47.10 38.60 46.80 39.95Q46.50 41.30 46.25 42.65L38.55 44.25ZM69.25 44.35Q65.95 44.35 63.85 41.80Q61.75 39.25 61.75 34.10Q61.75 31.25 62.45 28.10Q63.15 24.95 64.40 21.90Q65.65 18.85 67.30 16.25Q69.95 12.05 73.40 9.40Q76.85 6.75 80.65 6.75Q83.65 6.75 85.28 8.27Q86.90 9.80 87.55 12.17Q88.20 14.55 88.20 17.10Q88.20 23.05 86.38 28.17Q84.55 33.30 81.65 36.85Q78.75 40.50 75.48 42.42Q72.20 44.35 69.25 44.35M71.95 36.10Q74.20 36.10 75.93 34.60Q77.65 33.10 78.85 30.77Q80.05 28.45 80.65 25.90Q81.25 23.35 81.25 21.30Q81.25 20.50 81.10 19.57Q80.95 18.65 80.45 17.95Q79.95 17.25 78.90 17.25Q76.60 17.25 74.75 18.92Q72.90 20.60 71.65 23.15Q70.40 25.75 69.80 28.25Q69.20 30.75 69.20 32.80Q69.20 33.85 69.95 34.97Q70.70 36.10 71.95 36.10ZM84.70 44.20Q86.20 37.45 87.55 31Q88.10 28.40 88.68 25.42Q89.25 22.45 89.85 19.40Q90.45 16.35 90.95 13.62Q91.45 10.90 91.75 8.85Q93.75 8.25 96.08 7.75Q98.40 7.25 100.25 7.25Q103.25 7.25 105.00 8.52Q106.75 9.80 107.50 11.95Q108.25 14.10 108.25 16.65Q108.25 19.45 107.23 22.02Q106.20 24.60 104.48 26.65Q102.75 28.70 100.53 29.90Q98.30 31.10 95.90 31.10L95.35 31.10Q94.95 32.80 94.60 34.80Q94.25 36.80 94.00 38.50Q93.80 39.50 93.65 40.50Q93.50 41.50 93.35 42.50L84.70 44.20M96.35 25.85Q97.50 25.55 98.65 24.32Q99.80 23.10 100.55 21.20Q101.30 19.30 101.30 17.05Q101.30 15.20 100.48 14.25Q99.65 13.30 98.65 13.30Q98.10 16.60 97.55 19.55Q97.00 22.50 96.35 25.85Z"/></g></g></svg>